<svg xmlns="http://www.w3.org/2000/svg" xmlns:xlink="http://www.w3.org/1999/xlink" width="1600" zoomAndPan="magnify" viewBox="0 0 1200 1199.999942" height="1600" preserveAspectRatio="xMidYMid meet" version="1.0"><defs><clipPath id="ae59f25c4e"><path d="M 0 419.046875 L 356 419.046875 L 356 673 L 0 673 Z M 0 419.046875 " clip-rule="nonzero"/></clipPath></defs><g clip-path="url(#ae59f25c4e)"><path fill="#ffffff" d="M 271.53125 506.4375 C 274.148438 513.679688 275.03125 522.398438 275.03125 532.355469 L 275.03125 558.9375 C 275.03125 594.882812 267.128906 608.535156 229.433594 608.535156 L 127.460938 608.535156 C 89.765625 608.535156 81.863281 594.882812 81.863281 558.9375 L 81.863281 532.355469 C 81.863281 501.816406 90.121094 482.757812 131.769531 482.757812 L 225.125 482.757812 C 239.285156 482.757812 249.566406 484.976562 257.015625 489.070312 L 198.855469 419.492188 L 114.539062 419.492188 C 42.71875 419.492188 0 436.023438 0 508.988281 L 0 582.664062 C 0 654.914062 42.71875 672.160156 114.539062 672.160156 L 242.355469 672.160156 C 305.539062 672.160156 346.183594 658.773438 355.0625 606.367188 Z M 271.53125 506.4375 " fill-opacity="1" fill-rule="nonzero"/></g><path fill="#ffffff" d="M 538.066406 436.214844 L 525.8125 422.015625 L 525.8125 601.695312 L 525.097656 601.695312 L 375.363281 422.015625 L 276.554688 422.015625 L 483.261719 669.277344 L 605.507812 669.277344 L 605.507812 516.894531 Z M 538.066406 436.214844 " fill-opacity="1" fill-rule="nonzero"/><path fill="#ffffff" d="M 887.132812 669.277344 L 993.292969 669.277344 L 1006.167969 653.863281 L 953.097656 590.359375 Z M 887.132812 669.277344 " fill-opacity="1" fill-rule="nonzero"/><path fill="#ffffff" d="M 1200 422.015625 L 1093.839844 422.015625 L 1043.554688 482.140625 L 993.292969 422.015625 L 867.1875 422.015625 L 784.039062 522.992188 L 696.441406 422.015625 L 601.773438 422.015625 L 744.203125 592.359375 L 744.203125 669.277344 L 823.902344 669.277344 L 823.902344 593.074219 L 926.707031 468.371094 L 1094.648438 669.277344 L 1200 669.277344 L 1096.644531 545.648438 Z M 1200 422.015625 " fill-opacity="1" fill-rule="nonzero"/><path fill="#ffffff" d="M 274.625 780.855469 L 259.917969 780.855469 C 254.089844 780.855469 243.710938 779.328125 243.710938 765.988281 L 243.710938 757.796875 C 243.710938 744.457031 253.636719 742.929688 263.109375 742.929688 L 274.007812 742.929688 C 286.144531 742.929688 290.902344 747.550781 290.902344 755.367188 L 290.902344 756.4375 L 284.835938 756.4375 L 284.835938 755.53125 C 284.835938 749.386719 280.597656 747.957031 274.078125 747.957031 L 262.109375 747.957031 C 255.96875 747.957031 250.210938 748.789062 250.210938 757.960938 L 250.210938 765.703125 C 250.210938 773.898438 255.515625 775.804688 263.394531 775.804688 L 274.386719 775.804688 C 280.457031 775.804688 285.523438 774.066406 285.523438 768.0625 L 285.523438 766.847656 L 291.59375 766.847656 L 291.59375 767.992188 C 291.59375 777.160156 286.738281 780.878906 274.625 780.878906 Z M 274.625 780.855469 " fill-opacity="1" fill-rule="nonzero"/><path fill="#ffffff" d="M 364.273438 780.257812 L 364.273438 776.613281 L 364.128906 776.613281 C 362.226562 779.949219 360.417969 780.855469 350.328125 780.855469 L 334.714844 780.855469 C 324.863281 780.855469 322.292969 776.683594 322.292969 769.777344 L 322.292969 767.347656 C 322.292969 759.082031 328.503906 757.9375 339.878906 757.9375 L 350.328125 757.9375 C 358.820312 757.9375 361.84375 758.84375 364.128906 762.34375 L 364.273438 762.34375 L 364.273438 755.4375 C 364.273438 748.765625 359.867188 747.933594 349.875 747.933594 L 340.332031 747.933594 C 332.144531 747.933594 330.550781 749.839844 330.550781 752.863281 L 330.550781 754.152344 L 324.03125 754.152344 L 324.03125 752.339844 C 324.03125 745.671875 328.574219 742.929688 340.164062 742.929688 L 350.46875 742.929688 C 362.582031 742.929688 370.769531 744.667969 370.769531 755.605469 L 370.769531 780.257812 L 364.246094 780.257812 Z M 339.570312 763.035156 C 331.144531 763.035156 328.8125 764.25 328.8125 768.800781 L 328.8125 769.945312 C 328.8125 773.96875 330.40625 775.78125 339.261719 775.78125 L 347.898438 775.78125 C 359.726562 775.78125 364.273438 775.015625 364.273438 770.394531 L 364.273438 768.730469 C 364.273438 763.726562 359.65625 763.035156 349.566406 763.035156 Z M 339.570312 763.035156 " fill-opacity="1" fill-rule="nonzero"/><path fill="#ffffff" d="M 415.9375 748.550781 L 415.9375 780.257812 L 409.414062 780.257812 L 409.414062 748.550781 L 401.015625 748.550781 L 401.015625 743.550781 L 409.414062 743.550781 L 409.414062 740.285156 C 409.414062 731.566406 415.03125 728.066406 422.148438 728.066406 L 434.355469 728.066406 L 434.355469 733.140625 L 422.695312 733.140625 C 417.839844 733.140625 415.960938 735.714844 415.960938 738.976562 L 415.960938 743.527344 L 434.378906 743.527344 L 434.378906 748.527344 L 415.960938 748.527344 Z M 415.9375 748.550781 " fill-opacity="1" fill-rule="nonzero"/><path fill="#ffffff" d="M 493.46875 780.855469 L 481.640625 780.855469 C 473.242188 780.855469 463.460938 779.328125 463.460938 765.75 L 463.460938 757.796875 C 463.460938 744.457031 473.171875 742.929688 482.402344 742.929688 L 492.875 742.929688 C 504.628906 742.929688 512.960938 745.742188 512.960938 758.867188 L 512.960938 762.964844 L 469.980469 762.964844 L 469.980469 765.25 C 469.980469 773.660156 474.21875 775.804688 485.59375 775.804688 L 494.539062 775.804688 C 502.726562 775.804688 506.058594 774.898438 506.4375 769.207031 L 512.960938 769.207031 L 512.960938 769.894531 C 512.960938 778.328125 505.605469 780.902344 493.492188 780.902344 Z M 506.414062 755.460938 C 506.414062 751.746094 503.464844 747.957031 492.851562 747.957031 L 483.308594 747.957031 C 473.074219 747.957031 470.574219 749.554688 469.980469 757.960938 L 506.4375 757.960938 L 506.4375 755.460938 Z M 506.414062 755.460938 " fill-opacity="1" fill-rule="nonzero"/><path fill="#ffffff" d="M 666.644531 780.257812 L 657.984375 776.019531 C 655.105469 780.140625 648.988281 780.78125 642.632812 780.78125 L 620.144531 780.78125 C 606.722656 780.78125 603.320312 776.351562 603.320312 766.25 L 603.320312 764.511719 C 603.320312 763.941406 603.390625 763.34375 603.4375 762.84375 C 603.960938 756.984375 606.914062 754.101562 614.671875 754.101562 L 614.671875 754.03125 C 610.363281 751.457031 609.601562 750.742188 609.601562 744.457031 C 609.601562 738.167969 613.910156 735.570312 620 735.570312 L 642.679688 735.570312 C 651.675781 735.570312 654.746094 739.308594 654.746094 745.480469 L 654.746094 749.148438 L 648.84375 749.148438 L 648.84375 745.8125 C 648.84375 741.761719 646.15625 740.476562 642.753906 740.476562 L 621.882812 740.476562 C 616.933594 740.476562 615.910156 742.214844 615.910156 745.097656 C 615.910156 747.980469 616.027344 749.265625 618.144531 750.363281 L 653.984375 768.441406 L 653.984375 758.535156 L 659.886719 758.535156 L 659.886719 767.847656 C 659.886719 768.824219 659.769531 769.847656 659.554688 771.0625 L 668.929688 775.757812 L 666.621094 780.257812 Z M 621.859375 758.269531 L 619.167969 756.914062 L 617.242188 756.914062 C 615.574219 756.914062 609.601562 757.628906 609.601562 764.632812 L 609.601562 767.585938 C 609.601562 772.660156 611.007812 775.875 620.265625 775.875 L 641.777344 775.875 C 647.867188 775.875 651.488281 775.160156 652.175781 773.375 Z M 621.859375 758.269531 " fill-opacity="1" fill-rule="nonzero"/><path fill="#ffffff" d="M 782.824219 780.855469 L 773.734375 780.855469 C 766.832031 780.855469 761.621094 778.949219 759.71875 774.398438 L 759.574219 774.398438 L 759.574219 780.234375 L 753.507812 780.234375 L 753.507812 728.042969 L 760.027344 728.042969 L 760.027344 748.386719 L 760.171875 748.386719 C 761.621094 744.527344 765.023438 742.929688 772.523438 742.929688 L 782.445312 742.929688 C 798.128906 742.929688 802.910156 747.097656 802.910156 758.867188 L 802.910156 765.324219 C 802.910156 778.066406 794.652344 780.878906 782.824219 780.878906 Z M 796.414062 758.035156 C 796.414062 749.527344 791.941406 747.933594 782.992188 747.933594 L 774.210938 747.933594 C 765.429688 747.933594 760.027344 749.386719 760.027344 758.175781 L 760.027344 765.15625 C 760.027344 771.824219 763.144531 775.78125 772.832031 775.78125 L 783.445312 775.78125 C 794.058594 775.78125 796.414062 772.300781 796.414062 765.226562 L 796.414062 758.007812 Z M 796.414062 758.035156 " fill-opacity="1" fill-rule="nonzero"/><path fill="#ffffff" d="M 876.113281 780.257812 L 876.113281 776.613281 L 875.96875 776.613281 C 874.066406 779.949219 872.257812 780.855469 862.167969 780.855469 L 846.554688 780.855469 C 836.703125 780.855469 834.132812 776.683594 834.132812 769.777344 L 834.132812 767.347656 C 834.132812 759.082031 840.34375 757.9375 851.71875 757.9375 L 862.167969 757.9375 C 870.664062 757.9375 873.6875 758.84375 875.96875 762.34375 L 876.113281 762.34375 L 876.113281 755.4375 C 876.113281 748.765625 871.710938 747.933594 861.714844 747.933594 L 852.171875 747.933594 C 843.984375 747.933594 842.390625 749.839844 842.390625 752.863281 L 842.390625 754.152344 L 835.871094 754.152344 L 835.871094 752.339844 C 835.871094 745.671875 840.417969 742.929688 852.007812 742.929688 L 862.308594 742.929688 C 874.421875 742.929688 882.609375 744.667969 882.609375 755.605469 L 882.609375 780.257812 L 876.089844 780.257812 Z M 851.410156 763.035156 C 842.988281 763.035156 840.65625 764.25 840.65625 768.800781 L 840.65625 769.945312 C 840.65625 773.96875 842.25 775.78125 851.101562 775.78125 L 859.738281 775.78125 C 871.566406 775.78125 876.113281 775.015625 876.113281 770.394531 L 876.113281 768.730469 C 876.113281 763.726562 871.496094 763.035156 861.40625 763.035156 Z M 851.410156 763.035156 " fill-opacity="1" fill-rule="nonzero"/><path fill="#ffffff" d="M 956.5 760.082031 L 951.71875 760.082031 L 951.71875 758.484375 C 951.71875 749.386719 949.742188 747.933594 938.152344 747.933594 L 934.132812 747.933594 C 927.230469 747.933594 923.898438 752.171875 923.898438 756.890625 L 923.898438 780.257812 L 917.378906 780.257812 L 917.378906 743.550781 L 923.445312 743.550781 L 923.445312 748.863281 L 923.589844 748.863281 C 926.015625 744.074219 931.015625 742.953125 935.417969 742.953125 L 941.554688 742.953125 C 953.667969 742.953125 957.761719 746.671875 957.761719 755.699219 L 957.761719 760.105469 L 956.476562 760.105469 Z M 956.5 760.082031 " fill-opacity="1" fill-rule="nonzero"/></svg>